<svg xmlns="http://www.w3.org/2000/svg" xmlns:xlink="http://www.w3.org/1999/xlink" width="20" height="20" viewBox="0 0 20 20">
  <defs>
    <clipPath id="clip-path">
      <rect id="Rectangle_1" data-name="Rectangle 1" width="20" height="20" transform="translate(-0.247 -0.247)" fill="none"/>
    </clipPath>
    <clipPath id="clip-settings">
      <rect width="20" height="20"/>
    </clipPath>
  </defs>
  <g id="settings" clip-path="url(#clip-settings)">
    <g id="Group_2" data-name="Group 2" transform="translate(0.247 0.248)">
      <g id="Group_1" data-name="Group 1" transform="translate(0 0)" clip-path="url(#clip-path)">
        <path id="Path_1" data-name="Path 1" d="M19.445,8.677a.635.635,0,0,0-.628-.48,2.147,2.147,0,0,1-1.475-3.749.543.543,0,0,0,.06-.74,9.832,9.832,0,0,0-1.548-1.561.544.544,0,0,0-.744.06,2.242,2.242,0,0,1-2.432.548A2.174,2.174,0,0,1,11.363.637a.547.547,0,0,0-.48-.572A9.838,9.838,0,0,0,8.69.059a.545.545,0,0,0-.484.556A2.168,2.168,0,0,1,6.869,2.7a2.264,2.264,0,0,1-2.416-.548.543.543,0,0,0-.736-.06A9.686,9.686,0,0,0,2.14,3.648a.548.548,0,0,0,.057.744,2.16,2.16,0,0,1,.552,2.439A2.256,2.256,0,0,1,.626,8.142a.531.531,0,0,0-.562.48,9.593,9.593,0,0,0,0,2.217.628.628,0,0,0,.636.48,2.147,2.147,0,0,1,2.006,1.339,2.172,2.172,0,0,1-.544,2.412.542.542,0,0,0-.06.738,9.654,9.654,0,0,0,1.544,1.561.544.544,0,0,0,.744-.057,2.25,2.25,0,0,1,2.435-.552,2.16,2.16,0,0,1,1.317,2.117.547.547,0,0,0,.48.572,10.015,10.015,0,0,0,1.124.064,9.185,9.185,0,0,0,1.071-.06.544.544,0,0,0,.484-.56,2.164,2.164,0,0,1,1.333-2.08,2.252,2.252,0,0,1,2.41.556.543.543,0,0,0,.736.06,9.845,9.845,0,0,0,1.577-1.561.544.544,0,0,0-.057-.744,2.147,2.147,0,0,1,1.452-3.757h.121a.547.547,0,0,0,.572-.48,10.1,10.1,0,0,0,0-2.211M9.767,13.031A3.253,3.253,0,1,1,13.02,9.778a3.253,3.253,0,0,1-3.253,3.253" transform="translate(0 0)"/>
      </g>
    </g>
  </g>
</svg>
